HIERARCHY
ROOT Hips
{
	OFFSET 0.000000 1.471914 24.280096
	CHANNELS 6 Xposition Yposition Zposition Xrotation Yrotation Zrotation
	JOINT Spine
	{
		OFFSET 0.000000 0.900110 1.860670
		CHANNELS 6 Xposition Yposition Zposition Xrotation Yrotation Zrotation
		JOINT Spine1
		{
			OFFSET 0.000000 0.400320 2.270309
			CHANNELS 6 Xposition Yposition Zposition Xrotation Yrotation Zrotation
			JOINT Spine2
			{
				OFFSET 0.000000 0.200920 2.296560
				CHANNELS 6 Xposition Yposition Zposition Xrotation Yrotation Zrotation
				JOINT Spine3
				{
					OFFSET 0.000000 0.000000 2.305330
					CHANNELS 6 Xposition Yposition Zposition Xrotation Yrotation Zrotation
					JOINT Neck
					{
						OFFSET 0.000000 -0.864490 6.051487
						CHANNELS 6 Xposition Yposition Zposition Xrotation Yrotation Zrotation
						JOINT Head
						{
							OFFSET 0.000000 -0.550429 3.121674
							CHANNELS 6 Xposition Yposition Zposition Xrotation Yrotation Zrotation
							End Site
							{
								OFFSET 0.000000 0.000000 3.731750
							}
						}
					}
					JOINT RightShoulder
					{
						OFFSET -0.788280 -1.313800 4.256718
						CHANNELS 6 Xposition Yposition Zposition Xrotation Yrotation Zrotation
						JOINT RightArm
						{
							OFFSET -3.915130 0.000000 0.000000
							CHANNELS 6 Xposition Yposition Zposition Xrotation Yrotation Zrotation
							JOINT RightForeArm
							{
								OFFSET -6.914910 0.000000 0.000000
								CHANNELS 6 Xposition Yposition Zposition Xrotation Yrotation Zrotation
								JOINT RightHand
								{
									OFFSET -6.096219 0.000000 0.000000
									CHANNELS 6 Xposition Yposition Zposition Xrotation Yrotation Zrotation
									JOINT RightHandEnd
									{
										OFFSET -1.749950 0.000000 0.000000
										CHANNELS 6 Xposition Yposition Zposition Xrotation Yrotation Zrotation
										End Site
										{
											OFFSET -1.749950 0.000000 0.000000
										}
									}
									JOINT RightHandThumb1
									{
										OFFSET -0.699980 -1.166630 -0.466648
										CHANNELS 6 Xposition Yposition Zposition Xrotation Yrotation Zrotation
										End Site
										{
											OFFSET -1.690319 -0.452920 0.000000
										}
									}
								}
							}
						}
					}
					JOINT LeftShoulder
					{
						OFFSET 0.788280 -1.313800 4.256718
						CHANNELS 6 Xposition Yposition Zposition Xrotation Yrotation Zrotation
						JOINT LeftArm
						{
							OFFSET 3.915130 0.000000 0.000000
							CHANNELS 6 Xposition Yposition Zposition Xrotation Yrotation Zrotation
							JOINT LeftForeArm
							{
								OFFSET 6.914910 0.000000 0.000000
								CHANNELS 6 Xposition Yposition Zposition Xrotation Yrotation Zrotation
								JOINT LeftHand
								{
									OFFSET 6.096219 0.000000 0.000000
									CHANNELS 6 Xposition Yposition Zposition Xrotation Yrotation Zrotation
									JOINT LeftHandEnd
									{
										OFFSET 1.749950 0.000000 0.000000
										CHANNELS 6 Xposition Yposition Zposition Xrotation Yrotation Zrotation
										End Site
										{
											OFFSET 1.749950 0.000000 0.000000
										}
									}
									JOINT LeftHandThumb1
									{
										OFFSET 0.699980 -1.166630 -0.466648
										CHANNELS 6 Xposition Yposition Zposition Xrotation Yrotation Zrotation
										End Site
										{
											OFFSET 1.690319 -0.452920 0.000000
										}
									}
								}
							}
						}
					}
				}
			}
		}
	}
	JOINT RightUpLeg
	{
		OFFSET -2.338570 -0.252550 -0.551512
		CHANNELS 6 Xposition Yposition Zposition Xrotation Yrotation Zrotation
		JOINT RightLeg
		{
			OFFSET 0.000000 0.000000 -10.744959
			CHANNELS 6 Xposition Yposition Zposition Xrotation Yrotation Zrotation
			JOINT RightFoot
			{
				OFFSET 0.000000 -0.000001 -10.930849
				CHANNELS 6 Xposition Yposition Zposition Xrotation Yrotation Zrotation
				JOINT RightToeBase
				{
					OFFSET 0.000000 -4.087269 -1.487650
					CHANNELS 6 Xposition Yposition Zposition Xrotation Yrotation Zrotation
					End Site
					{
						OFFSET 0.000000 -1.891870 0.000000
					}
				}
			}
		}
	}
	JOINT LeftUpLeg
	{
		OFFSET 2.338570 -0.252550 -0.551512
		CHANNELS 6 Xposition Yposition Zposition Xrotation Yrotation Zrotation
		JOINT LeftLeg
		{
			OFFSET 0.000000 0.000000 -10.744959
			CHANNELS 6 Xposition Yposition Zposition Xrotation Yrotation Zrotation
			JOINT LeftFoot
			{
				OFFSET 0.000000 -0.000001 -10.930849
				CHANNELS 6 Xposition Yposition Zposition Xrotation Yrotation Zrotation
				JOINT LeftToeBase
				{
					OFFSET 0.000000 -4.087269 -1.487650
					CHANNELS 6 Xposition Yposition Zposition Xrotation Yrotation Zrotation
					End Site
					{
						OFFSET 0.000000 -1.891870 0.000000
					}
				}
			}
		}
	}
}
MOTION
Frames: 7
Frame Time: 0.041667
0.000013 26.742886 40.714333 -7.377809 2.002763 -11.221064 -0.000013 0.900098 1.860711 22.520397 -3.972290 -1.163981 0.000001 0.400281 2.270334 -0.000003 -0.000002 0.000004 0.000023 0.200895 2.296530 0.000002 -0.000001 0.000001 0.000017 -0.000040 2.305344 -0.000032 0.000005 -3.140211 -0.000007 -0.864469 6.051499 6.741755 -4.484410 178.947213 0.000018 -0.550448 3.121719 0.000002 0.000001 -0.000001 -0.788279 -1.313743 4.256773 -127.895470 50.281240 -55.078516 -3.915092 -0.000000 -0.000038 0.000000 -0.000004 0.000000 -6.914879 -0.000016 -0.000000 0.000011 -0.000010 -33.865485 -6.096183 -0.000017 0.000010 -0.000095 -0.000042 -0.000008 -1.749923 -0.000011 0.000018 -0.000001 -0.000003 -0.000001 -0.700002 -1.166625 -0.466668 -0.000003 -0.000005 -0.000001 0.788262 -1.313788 4.256740 -117.539127 -40.608374 62.652813 3.915180 -0.000016 -0.000004 0.000002 0.000002 0.000001 6.914926 -0.000023 -0.000011 0.000005 -0.000001 31.735586 6.096229 0.000048 -0.000009 -0.000036 0.000027 -0.000038 1.749932 0.000014 0.000012 0.000002 0.000002 0.000001 0.699928 -1.166598 -0.466657 0.000030 -0.000003 -0.000027 -2.338577 -0.252533 -0.551510 13.821333 -3.075923 -0.720090 0.000014 -0.000019 -10.744967 9.242353 -0.000161 -0.964829 -0.000026 0.000044 -10.930836 -0.000005 -0.000004 0.000000 0.000000 -4.087246 -1.487634 0.000003 0.000001 -0.000002 2.338573 -0.252534 -0.551449 18.454350 3.023264 -0.961770 -0.000006 -0.000017 -10.744935 10.704862 2.044569 0.025708 -0.000006 0.000012 -10.930860 0.000014 -0.000003 -0.000002 -0.000014 -4.087224 -1.487648 0.000001 0.000000 0.000001 
0.000013 26.742884 40.714325 -7.137215 2.136589 -11.231405 -0.000013 0.900102 1.860704 22.163052 -4.247923 -1.073420 0.000000 0.400289 2.270338 -0.000003 -0.000002 0.000003 0.000024 0.200896 2.296534 0.000004 -0.000001 0.000001 0.000018 -0.000038 2.305340 -0.000033 0.000003 -3.197899 -0.000008 -0.864467 6.051495 6.912178 -4.373625 179.186693 0.000018 -0.550450 3.121719 -0.000001 0.000001 -0.000001 -0.788279 -1.313740 4.256769 -127.427916 49.969497 -55.575740 -3.915094 -0.000004 -0.000038 0.000002 -0.000004 0.000002 -6.914876 -0.000019 -0.000000 0.000012 -0.000010 -33.827714 -6.096183 -0.000017 0.000006 -0.000093 -0.000042 -0.000010 -1.749922 -0.000012 0.000019 -0.000002 -0.000000 -0.000001 -0.700003 -1.166627 -0.466668 -0.000001 -0.000000 -0.000002 0.788260 -1.313786 4.256735 -117.567336 -40.975118 62.825671 3.915183 -0.000019 -0.000004 0.000002 -0.000001 0.000002 6.914921 -0.000023 -0.000007 0.000003 -0.000003 31.325983 6.096232 0.000049 -0.000012 -0.000039 0.000031 -0.000040 1.749936 0.000013 0.000012 0.000000 0.000001 0.000001 0.699935 -1.166600 -0.466660 0.000026 -0.000005 -0.000030 -2.338577 -0.252530 -0.551515 13.513912 -3.318072 -0.659231 0.000014 -0.000019 -10.744965 8.871970 -0.176794 -0.935935 -0.000025 0.000046 -10.930840 -0.000007 -0.000003 0.000001 -0.000000 -4.087255 -1.487641 0.000005 0.000001 -0.000001 2.338573 -0.252530 -0.551452 18.510269 2.804400 -0.903256 -0.000006 -0.000016 -10.744931 11.036397 1.953794 0.019895 -0.000007 0.000024 -10.930861 0.000015 -0.000003 -0.000002 -0.000013 -4.087230 -1.487649 -0.000000 -0.000001 -0.000001 
0.000014 26.742880 40.714317 -7.028421 2.080407 -10.808768 -0.000012 0.900102 1.860708 21.968378 -4.458923 -1.019787 0.000001 0.400284 2.270336 -0.000003 -0.000002 0.000005 0.000023 0.200901 2.296530 0.000001 -0.000000 -0.000000 0.000018 -0.000038 2.305340 -0.000031 0.000005 -3.260506 -0.000007 -0.864464 6.051488 7.127084 -4.367872 179.471949 0.000019 -0.550449 3.121716 0.000001 0.000000 -0.000001 -0.788278 -1.313743 4.256767 -127.244484 49.713843 -55.587874 -3.915101 -0.000004 -0.000035 0.000004 -0.000001 -0.000002 -6.914877 -0.000013 -0.000004 0.000011 -0.000009 -34.074748 -6.096185 -0.000013 0.000010 -0.000101 -0.000038 -0.000012 -1.749923 -0.000008 0.000014 0.000001 0.000002 -0.000002 -0.700002 -1.166623 -0.466668 0.000002 0.000001 -0.000003 0.788260 -1.313786 4.256737 -117.565314 -41.329219 63.125209 3.915183 -0.000013 -0.000004 -0.000000 0.000000 0.000003 6.914922 -0.000022 -0.000010 0.000007 -0.000002 31.166385 6.096237 0.000046 -0.000008 -0.000036 0.000029 -0.000043 1.749940 0.000017 0.000009 -0.000000 -0.000001 0.000004 0.699938 -1.166597 -0.466661 0.000028 -0.000006 -0.000026 -2.338576 -0.252532 -0.551511 13.202570 -3.520919 -0.617150 0.000014 -0.000018 -10.744970 8.698983 -0.071430 -0.931482 -0.000027 0.000042 -10.930840 -0.000005 -0.000002 0.000001 0.000001 -4.087256 -1.487641 0.000009 0.000001 -0.000002 2.338573 -0.252531 -0.551450 18.643818 2.529639 -0.871344 -0.000006 -0.000018 -10.744936 11.374843 2.052880 -0.010951 -0.000007 0.000020 -10.930859 0.000020 -0.000002 -0.000001 -0.000013 -4.087224 -1.487647 -0.000005 -0.000001 0.000002 
0.000014 26.742880 40.714317 -6.890410 2.022607 -10.585422 -0.000012 0.900097 1.860707 21.692455 -4.515985 -0.987644 0.000001 0.400282 2.270336 -0.000002 -0.000001 0.000005 0.000023 0.200892 2.296532 0.000004 -0.000001 -0.000001 0.000017 -0.000037 2.305340 -0.000031 0.000004 -3.563585 -0.000007 -0.864465 6.051498 7.260559 -4.255165 179.622214 0.000018 -0.550446 3.121716 -0.000001 0.000001 -0.000002 -0.788279 -1.313742 4.256773 -126.773037 49.699875 -56.109003 -3.915088 -0.000006 -0.000038 0.000003 -0.000003 -0.000001 -6.914885 -0.000014 -0.000000 0.000013 -0.000008 -34.546981 -6.096182 -0.000021 0.000007 -0.000098 -0.000041 -0.000012 -1.749927 -0.000010 0.000018 -0.000003 -0.000001 -0.000002 -0.700006 -1.166624 -0.466667 0.000001 -0.000002 -0.000003 0.788265 -1.313786 4.256735 -117.434994 -40.963353 63.333919 3.915184 -0.000014 -0.000004 0.000003 0.000000 0.000001 6.914921 -0.000023 -0.000014 0.000006 -0.000003 31.183700 6.096230 0.000047 -0.000008 -0.000038 0.000030 -0.000039 1.749934 0.000015 0.000013 0.000002 0.000001 0.000002 0.699929 -1.166599 -0.466653 0.000030 -0.000002 -0.000028 -2.338577 -0.252534 -0.551509 12.774160 -3.754691 -0.585775 0.000015 -0.000017 -10.744973 8.520549 -0.000094 -0.940293 -0.000026 0.000038 -10.930838 -0.000003 -0.000003 0.000002 -0.000001 -4.087259 -1.487640 0.000001 0.000001 0.000000 2.338573 -0.252533 -0.551449 18.781830 2.552169 -0.860271 -0.000005 -0.000008 -10.744932 11.911755 1.686761 0.004151 -0.000006 0.000022 -10.930859 0.000015 -0.000002 -0.000001 -0.000013 -4.087229 -1.487647 -0.000004 -0.000000 0.000003 
0.000015 26.742878 40.714321 -6.787816 2.033622 -10.467437 -0.000013 0.900092 1.860711 21.503903 -4.584947 -0.974012 0.000000 0.400284 2.270327 -0.000003 -0.000001 0.000004 0.000023 0.200899 2.296536 0.000001 -0.000001 0.000000 0.000019 -0.000039 2.305344 -0.000032 0.000006 -3.640045 -0.000007 -0.864472 6.051499 7.337460 -4.380911 179.978995 0.000018 -0.550450 3.121716 0.000003 -0.000000 -0.000000 -0.788280 -1.313747 4.256771 -126.587188 49.292174 -56.160527 -3.915101 0.000000 -0.000038 0.000002 -0.000002 -0.000000 -6.914883 -0.000015 0.000003 0.000012 -0.000007 -35.169412 -6.096183 -0.000016 0.000010 -0.000094 -0.000041 -0.000004 -1.749927 -0.000008 0.000015 0.000003 0.000000 0.000000 -0.700012 -1.166625 -0.466660 -0.000001 -0.000003 -0.000001 0.788261 -1.313792 4.256739 -117.398070 -40.345600 63.213244 3.915187 -0.000013 -0.000004 0.000003 -0.000002 0.000002 6.914922 -0.000022 -0.000014 0.000006 -0.000003 31.757839 6.096229 0.000049 -0.000009 -0.000035 0.000028 -0.000040 1.749935 0.000014 0.000013 0.000004 -0.000000 0.000004 0.699933 -1.166600 -0.466657 0.000033 -0.000004 -0.000028 -2.338577 -0.252537 -0.551511 12.610927 -4.043040 -0.575288 0.000015 -0.000018 -10.744967 8.429266 0.262651 -0.970650 -0.000025 0.000040 -10.930840 -0.000005 -0.000003 0.000000 0.000000 -4.087258 -1.487637 0.000003 0.000001 -0.000001 2.338573 -0.252539 -0.551450 18.741925 2.361772 -0.853783 -0.000006 -0.000014 -10.744933 12.394269 1.492310 -0.033617 -0.000007 0.000017 -10.930860 0.000020 -0.000002 -0.000001 -0.000013 -4.087229 -1.487651 -0.000003 -0.000001 0.000001 
0.000015 26.742880 40.714317 -6.884487 1.939361 -10.082839 -0.000013 0.900099 1.860704 21.592547 -4.563546 -1.010748 0.000001 0.400284 2.270331 -0.000003 -0.000002 0.000005 0.000023 0.200893 2.296522 0.000002 -0.000001 -0.000002 0.000017 -0.000044 2.305340 -0.000033 0.000003 -3.662243 -0.000008 -0.864467 6.051491 7.178836 -4.187469 179.643688 0.000018 -0.550447 3.121716 0.000002 0.000003 -0.000005 -0.788282 -1.313744 4.256767 -126.278463 48.521087 -56.657007 -3.915090 -0.000003 -0.000035 0.000003 -0.000003 0.000001 -6.914885 -0.000010 0.000004 0.000013 -0.000008 -35.599499 -6.096183 -0.000014 0.000006 -0.000095 -0.000037 -0.000010 -1.749923 -0.000010 0.000019 -0.000003 0.000000 -0.000001 -0.700010 -1.166623 -0.466667 -0.000001 -0.000003 -0.000005 0.788261 -1.313789 4.256731 -117.213819 -39.058495 63.272632 3.915187 -0.000015 -0.000004 0.000001 0.000001 -0.000000 6.914917 -0.000025 -0.000011 0.000008 0.000001 33.112245 6.096234 0.000049 -0.000009 -0.000036 0.000031 -0.000039 1.749930 0.000015 0.000012 -0.000002 0.000000 -0.000001 0.699931 -1.166598 -0.466650 0.000024 -0.000006 -0.000031 -2.338578 -0.252531 -0.551516 12.684559 -4.302036 -0.598594 0.000014 -0.000017 -10.744973 8.408134 0.361977 -1.019013 -0.000026 0.000041 -10.930840 -0.000009 -0.000004 0.000002 -0.000001 -4.087254 -1.487637 0.000005 0.000002 -0.000002 2.338573 -0.252534 -0.551457 18.859050 2.387360 -0.887489 -0.000006 -0.000016 -10.744935 12.905944 1.430001 -0.047630 -0.000006 0.000018 -10.930860 0.000017 -0.000002 -0.000002 -0.000012 -4.087223 -1.487648 -0.000004 0.000000 0.000001 
0.000005 26.742878 40.714317 -6.882599 1.945499 -9.999519 -0.000013 0.900102 1.860704 21.487352 -4.437636 -1.008310 0.000001 0.400286 2.270336 -0.000001 -0.000001 0.000006 0.000024 0.200897 2.296534 0.000001 -0.000001 -0.000001 0.000018 -0.000033 2.305340 -0.000033 0.000006 -3.587041 -0.000007 -0.864468 6.051489 6.983517 -4.068080 179.010119 0.000020 -0.550451 3.121727 -0.000002 0.000001 -0.000002 -0.788283 -1.313744 4.256773 -126.328228 48.449038 -56.737651 -3.915096 -0.000009 -0.000035 0.000002 -0.000001 0.000000 -6.914877 -0.000016 -0.000004 0.000013 -0.000009 -35.882218 -6.096187 -0.000015 0.000002 -0.000095 -0.000036 -0.000011 -1.749918 -0.000008 0.000022 0.000001 -0.000002 0.000004 -0.699998 -1.166624 -0.466664 -0.000001 -0.000002 -0.000003 0.788261 -1.313787 4.256739 -117.114699 -39.339199 63.359150 3.915178 -0.000016 -0.000008 0.000003 0.000001 0.000001 6.914919 -0.000025 -0.000007 0.000007 -0.000002 33.220148 6.096230 0.000048 -0.000012 -0.000032 0.000029 -0.000041 1.749931 0.000016 0.000012 0.000004 -0.000000 0.000001 0.699928 -1.166598 -0.466658 0.000030 -0.000007 -0.000028 -2.338577 -0.252528 -0.551518 12.689395 -4.444046 -0.600435 0.000015 -0.000018 -10.744967 8.410104 0.385000 -1.041229 -0.000025 0.000046 -10.930840 -0.000007 -0.000004 0.000001 -0.000001 -4.087248 -1.487638 0.000001 0.000002 -0.000001 2.338573 -0.252530 -0.551456 18.835220 2.216785 -0.888686 -0.000006 -0.000015 -10.744933 13.177072 1.494861 -0.089051 -0.000007 0.000017 -10.930859 0.000015 -0.000003 -0.000001 -0.000013 -4.087225 -1.487650 -0.000006 -0.000001 0.000001 
